<?xml version="1.0" encoding="UTF-8"?>
<svg version="1.1" xmlns="http://www.w3.org/2000/svg" width="626" height="626">
<path d="M0 0 C206.58 0 413.16 0 626 0 C626 206.58 626 413.16 626 626 C419.42 626 212.84 626 0 626 C0 419.42 0 212.84 0 0 Z " fill="#000000" transform="translate(0,0)"/>
<path d="M0 0 C0.84981445 0.18224121 1.69962891 0.36448242 2.57519531 0.55224609 C24.20652751 5.26515193 43.98084624 12.86134522 63.875 22.5 C64.59887909 22.85070557 65.32275818 23.20141113 66.068573 23.56274414 C85.81624663 33.16718222 104.21084408 44.52823679 122.42578125 56.76171875 C123.28598877 57.33881592 124.14619629 57.91591309 125.0324707 58.51049805 C127 60 127 60 128 62 C123.62350619 60.48916536 120.07760581 58.12658442 116.3125 55.5 C102.95686596 46.40559962 88.56684867 38.95363537 74 32 C73.32066406 31.67290039 72.64132813 31.34580078 71.94140625 31.00878906 C59.02204835 24.84382545 45.70726399 20.10186287 32 16 C30.63101563 15.58693604 30.63101563 15.58693604 29.234375 15.16552734 C17.98189141 11.88560934 7.1617403 10.54303989 -4.5625 10.4375 C-5.70364258 10.42267578 -6.84478516 10.40785156 -8.02050781 10.39257812 C-19.44165595 10.53206292 -31.34076056 13.09146076 -40 21 C-46.11044299 28.33516539 -48.36522425 35.25500462 -48.25 44.6875 C-48.24323242 45.48478516 -48.23646484 46.28207031 -48.22949219 47.10351562 C-47.76632549 73.6655872 -31.24219565 98.87829902 -15 119 C-14.29359375 119.89976562 -13.5871875 120.79953125 -12.859375 121.7265625 C-4.17871791 132.62560974 5.55886708 142.62775199 15.375 152.5 C15.92115967 153.05083252 16.46731934 153.60166504 17.0300293 154.16918945 C63.12334272 200.08171752 133.59356609 245.75558069 200.3125 246.3125 C201.45912109 246.34150391 202.60574219 246.37050781 203.78710938 246.40039062 C216.27029221 246.49223068 227.70080135 243.15603504 236.75 234.3125 C242.22420259 227.06288036 243.66232553 218.88083859 244 210 C244.66 210 245.32 210 246 210 C246.51571388 224.49729029 246.91072927 237.32453224 236.96875 248.97265625 C225.08351837 261.21161501 210.42825477 265.10637755 193.8125 265.375 C167.32445007 265.30985724 141.39863035 257.25866465 117.23730469 246.95117188 C115.15797164 246.06716036 113.06973889 245.20995537 110.9765625 244.359375 C87.76490235 234.76373853 65.62570483 221.2745993 45 207 C44.4112207 206.59281738 43.82244141 206.18563477 43.21582031 205.76611328 C29.14846461 195.98569306 15.85800219 185.31627531 3 174 C2.0615625 173.175 1.123125 172.35 0.15625 171.5 C-13.43858003 159.27992806 -26.79216615 146.46539531 -38 132 C-39.62190188 130.10151552 -41.2470875 128.20583302 -42.875 126.3125 C-55.46229139 111.20775034 -66.3537823 94.12354224 -74 76 C-74.45246094 74.94167969 -74.90492187 73.88335937 -75.37109375 72.79296875 C-81.74371865 57.15450941 -85.66560065 38.93842773 -79.328125 22.6484375 C-73.04507346 10.11929354 -63.100921 3.49271127 -50.17578125 -0.9765625 C-33.97097457 -5.50967182 -16.21405254 -3.52758799 0 0 Z " fill="#F9F9F9" transform="translate(182,181)"/>
<path d="M0 0 C13 0 13 0 16.875 3 C17.9460063 4.30988271 18.98769758 5.64423784 20 7 C21.11708432 8.27779692 22.24230751 9.54851816 23.375 10.8125 C23.95507812 11.48410156 24.53515625 12.15570313 25.1328125 12.84765625 C30.51045764 19.04657356 36.070789 25.08459375 41.625 31.125 C45.23537746 35.0527188 48.80115628 39.01271052 52.296875 43.04296875 C55.49962159 46.72318902 58.75410388 50.35785163 62 54 C68.12110456 49.10311635 73.27361353 43.46423146 78.50439453 37.65283203 C81.02095593 34.87171537 83.57516343 32.12557271 86.125 29.375 C89.61021945 25.60688035 93.0737771 21.82203205 96.5 18 C97.21542969 17.21882813 97.93085938 16.43765625 98.66796875 15.6328125 C100.45008769 13.62083902 102.13061542 11.59360088 103.80078125 9.4921875 C104.80443441 8.28624765 105.8083386 7.08051668 106.8125 5.875 C107.24949219 5.29363281 107.68648438 4.71226562 108.13671875 4.11328125 C109.51953125 2.4921875 109.51953125 2.4921875 113 0 C116.96 0 120.92 0 125 0 C125 42.24 125 84.48 125 128 C113.78 128 102.56 128 91 128 C90.67 110.18 90.34 92.36 90 74 C85.005691 78.994309 80.38673417 83.67018571 75.8203125 88.9375 C73.70881944 91.32992132 71.56908358 93.68281602 69.375 96 C68.66085937 96.763125 67.94671875 97.52625 67.2109375 98.3125 C65 100 65 100 62.48828125 100.5234375 C59.05640657 99.80150468 58.02080485 98.3180547 55.8125 95.625 C51.8966125 91.01077923 47.79222332 86.73969335 43.45703125 82.51953125 C40.49363574 79.48075525 37.76229106 76.2226729 35 73 C34.67 91.15 34.34 109.3 34 128 C22.78 128 11.56 128 0 128 C0 85.76 0 43.52 0 0 Z " fill="#FBFBFB" transform="translate(307,257)"/>
<path d="M0 0 C6.22644046 5.44192882 10.23108057 13.01970377 11.44921875 21.140625 C11.44921875 23.450625 11.44921875 25.760625 11.44921875 28.140625 C1.54921875 28.140625 -8.35078125 28.140625 -18.55078125 28.140625 C-19.54078125 26.160625 -20.53078125 24.180625 -21.55078125 22.140625 C-26.56035543 17.6006984 -31.7616416 17.80819215 -38.23828125 17.8515625 C-42.94520211 18.26230795 -45.62213087 19.54623324 -49.55078125 22.140625 C-51.87614188 25.62866595 -51.88536023 27.04203254 -51.55078125 31.140625 C-51.20184959 33.42226524 -51.20184959 33.42226524 -49.55078125 35.140625 C-42.67850354 38.71420941 -35.09462486 39.06748202 -27.51220703 39.91552734 C-13.66586929 41.50456436 0.62834399 44.5881987 9.82421875 55.953125 C15.76957155 64.73903525 16.44430596 73.6754382 15.44921875 84.140625 C12.85004002 95.06598642 5.72476458 103.16110646 -3.55078125 109.140625 C-18.20464538 117.23881307 -37.51239378 119.13201772 -53.67578125 114.578125 C-65.85596503 110.02448767 -76.3956604 103.44878726 -81.98828125 91.328125 C-82.54895474 89.94781225 -83.07318205 88.5518362 -83.55078125 87.140625 C-83.74800781 86.55925781 -83.94523437 85.97789062 -84.1484375 85.37890625 C-84.75268934 82.01738872 -84.55078125 78.55601962 -84.55078125 75.140625 C-74.32078125 75.140625 -64.09078125 75.140625 -53.55078125 75.140625 C-52.06578125 78.605625 -52.06578125 78.605625 -50.55078125 82.140625 C-43.81560072 87.3215331 -35.68135845 86.64935385 -27.55078125 86.140625 C-23.61280003 85.33283398 -20.59318584 84.0250895 -17.48828125 81.390625 C-16.04898629 77.9363171 -16.51928263 75.68640152 -17.55078125 72.140625 C-22.92517996 67.11296169 -32.02873987 67.16958331 -39.02294922 66.49536133 C-51.9032009 65.23098444 -65.17683171 63.24386626 -74.328125 53.1875 C-82.37694122 42.87556919 -83.3903262 32.8142155 -82.55078125 20.140625 C-81.07790154 9.9250556 -75.30012012 3.01047119 -67.30078125 -3.171875 C-46.57393788 -17.50365926 -19.63260444 -14.31105622 0 0 Z " fill="#FAFAFA" transform="translate(523.55078125,268.859375)"/>
<path d="M0 0 C0.495 0.99 0.495 0.99 1 2 C-0.09828125 1.98259766 -0.09828125 1.98259766 -1.21875 1.96484375 C-13.16201801 1.86531652 -25.07223304 2.44727134 -37 3 C-36.32646484 3.01458252 -35.65292969 3.02916504 -34.95898438 3.04418945 C-21.69649114 3.36399906 -8.94158513 3.93336507 4 7 C0.10070657 9.59952896 -1.25342917 8.88562768 -5.8125 8.125 C-25.23949029 5.31938117 -47.45079753 4.79758172 -64 17 C-70.45177164 22.754821 -74.55546861 28.70605421 -77 37 C-77.18949219 37.59683594 -77.37898438 38.19367188 -77.57421875 38.80859375 C-82.58104125 64.57765266 -68.89161591 91.98081468 -55.25 112.9375 C-46.85149465 125.16546082 -37.80351716 136.86933759 -28 148 C-27.18660156 148.92554688 -26.37320313 149.85109375 -25.53515625 150.8046875 C-14.31082045 163.29154489 -2.58522127 175.84824375 10.68359375 186.1796875 C12.95612285 187.96551981 15.0647076 189.85238889 17.1875 191.8125 C23.74812947 197.6892476 30.88306609 202.82529736 38 208 C38.76779785 208.56025879 39.5355957 209.12051758 40.32666016 209.69775391 C53.0932741 218.96566093 66.28006933 227.22239824 80 235 C80.90508301 235.51836426 81.81016602 236.03672852 82.74267578 236.57080078 C120.27960028 257.99457579 172.39496848 282.22379617 216.8203125 271.0390625 C228.00286072 267.38481455 237.9416442 261.56339731 243.96875 251.19921875 C245.80497036 247.28333974 246.9452879 243.18454884 248 239 C248.33 239 248.66 239 249 239 C249.33 236.69 249.66 234.38 250 232 C250.33 232 250.66 232 251 232 C251 234.97 251 237.94 251 241 C251.66 241 252.32 241 253 241 C252.96519531 240.07767578 252.96519531 240.07767578 252.9296875 239.13671875 C252.91164063 238.32847656 252.89359375 237.52023437 252.875 236.6875 C252.85179687 235.88699219 252.82859375 235.08648437 252.8046875 234.26171875 C253 232 253 232 255 229 C255.66 229 256.32 229 257 229 C257.79264604 242.25480326 255.66171128 254.5817179 247 265 C246.43667969 265.68578125 245.87335938 266.3715625 245.29296875 267.078125 C235.10483796 278.31724191 220.04232895 283.38941482 205.18798828 284.14257812 C154.01599385 285.67875685 106.26512121 266.0717601 63 240 C62.19369141 239.51563477 61.38738281 239.03126953 60.55664062 238.53222656 C49.6315993 231.9215609 39.27312805 224.71097761 29.07421875 217.03125 C25.7887402 214.56085072 22.44831527 212.23674504 19 210 C18.67 210.99 18.34 211.98 18 213 C11.4 213 4.8 213 -2 213 C-2.73605469 210.89238281 -3.47210938 208.78476562 -4.23046875 206.61328125 C-4.95857915 204.56004024 -5.69157186 202.50860451 -6.42504883 200.45727539 C-6.92952327 199.03818861 -7.42895716 197.6172989 -7.9230957 196.19458008 C-8.6371394 194.14161457 -9.3694775 192.09596562 -10.10546875 190.05078125 C-10.54012451 188.82012939 -10.97478027 187.58947754 -11.42260742 186.3215332 C-13.14315823 182.69855011 -15.02994519 180.66031928 -18 178 C-18.54446777 177.46076904 -19.08893555 176.92153809 -19.64990234 176.3659668 C-20.12379395 175.89843994 -20.59768555 175.43091309 -21.0859375 174.94921875 C-26.34133585 169.74529733 -31.56737135 164.56955431 -36.3515625 158.921875 C-37.52582431 157.55283043 -38.73288755 156.2116349 -39.9609375 154.890625 C-67.11006046 125.68326528 -93.5574421 86.0641563 -92.34765625 44.78515625 C-91.65215763 32.14403265 -86.47037866 20.9955564 -77.375 12.25 C-56.91489698 -5.01321193 -25.12500221 -5.90328232 0 0 Z " fill="#0B0B0B" transform="translate(179,172)"/>
<path d="M0 0 C1.39120471 0.00015906 2.78241534 0.00585033 4.17358398 0.01586914 C5.27016579 0.01799156 5.27016579 0.01799156 6.38890076 0.02015686 C8.73253406 0.02577131 11.07607313 0.03832617 13.41967773 0.05102539 C15.00496282 0.05603853 16.59024939 0.06060176 18.17553711 0.06469727 C22.06945383 0.07574542 25.96329979 0.09301967 29.85717773 0.11352539 C29.95107963 7.71571275 29.95107963 7.71571275 28.23217773 11.42602539 C25.81889112 17.01694919 23.9373711 22.73268806 22.05200195 28.51708984 C20.67319522 32.72775349 19.21170173 36.88715884 17.63623047 41.02807617 C16.15673885 44.98853289 14.80098645 48.99301685 13.41967773 52.98852539 C9.7831912 63.459409 9.7831912 63.459409 7.79467773 68.23852539 C5.90904213 72.78671083 4.3920166 77.43844692 2.85717773 82.11352539 C1.04221088 87.63758163 -0.83256765 93.08503124 -3.06469727 98.45727539 C-4.58001327 102.19066266 -5.98347619 105.96407927 -7.39282227 109.73852539 C-7.66352539 110.46313965 -7.93422852 111.18775391 -8.21313477 111.93432617 C-8.8572467 113.66039675 -9.50016276 115.38691351 -10.14282227 117.11352539 C-17.91856112 114.63452746 -24.36847677 108.59965362 -30.82446289 103.7902832 C-32.90669449 102.28430525 -35.0190792 100.88567572 -37.18969727 99.51196289 C-48.03235857 92.35646003 -50.93805399 83.41453445 -54.14282227 71.11352539 C-55.46282227 74.08352539 -56.78282227 77.05352539 -58.14282227 80.11352539 C-63.29543135 77.53722085 -66.87175506 74.06248448 -71.01782227 70.11352539 C-71.82735352 69.39551758 -72.63688477 68.67750977 -73.47094727 67.93774414 C-74.6040332 66.84913086 -74.6040332 66.84913086 -75.76000977 65.73852539 C-76.45723145 65.09141602 -77.15445313 64.44430664 -77.87280273 63.77758789 C-81.14173363 56.92049947 -75.86588237 46.51807056 -73.70141602 39.67211914 C-73.37367691 38.62323013 -73.04593781 37.57434113 -72.70826721 36.4936676 C-72.02069351 34.29709202 -71.33063203 32.10129374 -70.63818359 29.90625 C-69.57411604 26.53134107 -68.51904091 23.1537144 -67.46508789 19.77563477 C-66.79438842 17.63679835 -66.12318285 15.49812056 -65.45141602 13.35961914 C-65.13474472 12.34620956 -64.81807343 11.33279999 -64.49180603 10.28868103 C-64.19802567 9.36003738 -63.9042453 8.43139374 -63.6015625 7.47460938 C-63.21423195 6.2441111 -63.21423195 6.2441111 -62.81907654 4.98875427 C-62.14282227 3.11352539 -62.14282227 3.11352539 -61.14282227 2.11352539 C-58.78968672 2.04080798 -56.43448558 2.02981671 -54.08032227 2.05102539 C-52.7899707 2.06004883 -51.49961914 2.06907227 -50.17016602 2.07836914 C-49.17114258 2.0899707 -48.17211914 2.10157227 -47.14282227 2.11352539 C-44.02783037 9.54497631 -41.44947294 17.07777641 -39.03344727 24.76196289 C-38.47593781 26.52438828 -38.47593781 26.52438828 -37.90716553 28.32241821 C-37.12877443 30.78748733 -36.35237481 33.2531861 -35.57788086 35.71948242 C-34.38914066 39.50023462 -33.19014183 43.27763323 -31.99047852 47.05493164 C-31.23334609 49.45707943 -30.47681428 51.85941663 -29.72094727 54.26196289 C-29.36164124 55.39113129 -29.00233521 56.52029968 -28.63214111 57.6836853 C-28.3046991 58.73222687 -27.97725708 59.78076843 -27.63989258 60.86108398 C-27.34995422 61.78134369 -27.06001587 62.70160339 -26.7612915 63.64974976 C-26.14282227 66.11352539 -26.14282227 66.11352539 -26.14282227 70.11352539 C-25.48282227 70.11352539 -24.82282227 70.11352539 -24.14282227 70.11352539 C-24.10415039 69.2743457 -24.10415039 69.2743457 -24.06469727 68.41821289 C-23.03274037 53.83009496 -17.09705798 39.65815786 -12.48730469 25.88623047 C-11.44281003 22.76361892 -10.40486416 19.63888004 -9.36743164 16.51391602 C-8.70570777 14.53006343 -8.0436125 12.54633468 -7.38110352 10.56274414 C-7.07070633 9.62750412 -6.76030914 8.6922641 -6.44050598 7.72868347 C-6.00951851 6.44517754 -6.00951851 6.44517754 -5.56982422 5.13574219 C-5.31763626 4.3807695 -5.0654483 3.62579681 -4.80561829 2.84794617 C-3.66159826 -0.14575331 -3.44823426 0.12455752 0 0 Z " fill="#FAFAFA" transform="translate(271.142822265625,256.886474609375)"/>
<path d="M0 0 C1.01619415 -0.00299103 1.01619415 -0.00299103 2.05291748 -0.00604248 C13.6217184 -0.00218773 13.6217184 -0.00218773 17.1875 2.375 C15.99543945 2.38901855 15.99543945 2.38901855 14.77929688 2.40332031 C-16.95054508 2.56462345 -16.95054508 2.56462345 -44.1875 17.55859375 C-53.27938664 27.72139972 -56.38925756 38.61724033 -56.25 52 C-56.24025146 53.05614502 -56.23050293 54.11229004 -56.22045898 55.20043945 C-55.46864975 88.62409417 -34.31558527 119.35635429 -13.8125 144.375 C-13.1628125 145.19871094 -12.513125 146.02242187 -11.84375 146.87109375 C0.61221683 162.51076852 14.88964729 177.4882219 30.1875 190.375 C31.56421875 191.56802734 31.56421875 191.56802734 32.96875 192.78515625 C87.58636608 239.93169883 161.60834129 285.60478954 236.1875 281.375 C250.00310473 280.05720386 263.89788309 274.70599075 273.15625 264.125 C280.68381604 254.17330252 282.79161742 243.64735984 283.1875 231.375 C283.8475 231.375 284.5075 231.375 285.1875 231.375 C285.98014604 244.62980326 283.84921128 256.9567179 275.1875 267.375 C274.62417969 268.06078125 274.06085938 268.7465625 273.48046875 269.453125 C263.29233796 280.69224191 248.22982895 285.76441482 233.37548828 286.51757812 C182.20349385 288.05375685 134.45262121 268.4467601 91.1875 242.375 C90.38119141 241.89063477 89.57488281 241.40626953 88.74414062 240.90722656 C77.8190993 234.2965609 67.46062805 227.08597761 57.26171875 219.40625 C53.9762402 216.93585072 50.63581527 214.61174504 47.1875 212.375 C46.8575 213.365 46.5275 214.355 46.1875 215.375 C39.5875 215.375 32.9875 215.375 26.1875 215.375 C25.45144531 213.26738281 24.71539062 211.15976562 23.95703125 208.98828125 C23.22892085 206.93504024 22.49592814 204.88360451 21.76245117 202.83227539 C21.25797673 201.41318861 20.75854284 199.9922989 20.2644043 198.56958008 C19.5503606 196.51661457 18.8180225 194.47096562 18.08203125 192.42578125 C17.64737549 191.19512939 17.21271973 189.96447754 16.76489258 188.6965332 C15.04434177 185.07355011 13.15755481 183.03531928 10.1875 180.375 C9.64303223 179.83576904 9.09856445 179.29653809 8.53759766 178.7409668 C8.06370605 178.27343994 7.58981445 177.80591309 7.1015625 177.32421875 C1.84616415 172.12029733 -3.37987135 166.94455431 -8.1640625 161.296875 C-9.33832431 159.92783043 -10.54538755 158.5866349 -11.7734375 157.265625 C-38.92256046 128.05826528 -65.3699421 88.4391563 -64.16015625 47.16015625 C-63.46465763 34.51903265 -58.28287866 23.3705564 -49.1875 14.625 C-34.68712812 2.39031123 -18.29728389 0.01461142 0 0 Z " fill="#EEEEEE" transform="translate(150.8125,169.625)"/>
<path d="M0 0 C0.66 0 1.32 0 2 0 C2.79264604 13.25480326 0.66171128 25.5817179 -8 36 C-8.84498047 37.02867187 -8.84498047 37.02867187 -9.70703125 38.078125 C-19.89516204 49.31724191 -34.95767105 54.38941482 -49.81201172 55.14257812 C-75.29829204 55.907674 -97.82343463 51.81168624 -122 44 C-122.85464844 43.72865234 -123.70929688 43.45730469 -124.58984375 43.17773438 C-126.88323595 42.43834473 -129.16167934 41.66661251 -131.4375 40.875 C-132.09999756 40.6579541 -132.76249512 40.4409082 -133.44506836 40.21728516 C-135.24609375 39.5546875 -135.24609375 39.5546875 -138 38 C-138.91015625 35.3203125 -138.91015625 35.3203125 -139 33 C-133.87194045 33.62792566 -129.568165 35.23793662 -124.8125 37.125 C-116.71326005 40.21995671 -108.5148685 42.63423274 -100.125 44.8125 C-99.0213208 45.10205566 -97.9176416 45.39161133 -96.78051758 45.68994141 C-84.70092161 48.75196805 -73.03075747 50.37419306 -60.5625 50.3125 C-59.38034912 50.30758545 -58.19819824 50.3026709 -56.98022461 50.29760742 C-40.69830142 50.07880961 -24.03307941 46.84795511 -12 35 C-3.01680306 24.73348921 -0.43126473 13.3692065 0 0 Z " fill="#DBDBDB" transform="translate(434,401)"/>
<path d="M0 0 C5.94 0 11.88 0 18 0 C18.60328125 1.90523438 19.2065625 3.81046875 19.828125 5.7734375 C20.42698121 7.65356746 21.02586553 9.53368859 21.62548828 11.41357422 C22.23595651 13.33089313 22.8426327 15.24941809 23.44921875 17.16796875 C25.46932847 23.49323032 27.60072414 29.69959119 30.13378906 35.83740234 C31.35670999 38.89056851 32.31103492 41.9727601 33.25 45.125 C33.58515625 46.24132812 33.9203125 47.35765625 34.265625 48.5078125 C34.50796875 49.33023438 34.7503125 50.15265625 35 51 C34.34 51 33.68 51 33 51 C31.2289919 48.95350175 29.57416593 46.90044132 27.9375 44.75 C27.44580322 44.11175293 26.95410645 43.47350586 26.44750977 42.81591797 C25.43866822 41.50352685 24.43273504 40.18889504 23.4296875 38.87207031 C22.17281604 37.22628986 20.9001357 35.59260785 19.625 33.9609375 C0 8.51852679 0 8.51852679 0 0 Z " fill="#F2F2F2" transform="translate(149,257)"/>
<path d="M0 0 C0.66 0 1.32 0 2 0 C2.79264604 13.25480326 0.66171128 25.5817179 -8 36 C-8.56332031 36.68578125 -9.12664062 37.3715625 -9.70703125 38.078125 C-17.50885201 46.68476516 -28.59481553 52.08085838 -40 54 C-41.66620229 54.03934089 -43.33410077 54.05057194 -45 54 C-43.02 53.505 -43.02 53.505 -41 53 C-41 52.34 -41 51.68 -41 51 C-42.98 51 -44.96 51 -47 51 C-47 50.67 -47 50.34 -47 50 C-46.12859375 49.84144531 -45.2571875 49.68289063 -44.359375 49.51953125 C-29.933488 46.69368109 -17.31810232 42.38346578 -8.1875 30.3125 C-2.02973632 20.85440358 -0.3590365 11.13013156 0 0 Z " fill="#EAEAEA" transform="translate(434,401)"/>
<path d="M0 0 C14.15112369 -1.37603964 14.15112369 -1.37603964 18.55078125 1.8984375 C20.28667473 4.1956156 21.68393685 6.44295114 23 9 C23.99 10.485 23.99 10.485 25 12 C24.01 12 23.02 12 22 12 C20.82375712 10.53983642 19.70720849 9.03115962 18.625 7.5 C13.52258627 1.48906425 13.52258627 1.48906425 1 3 C0.67 44.91 0.34 86.82 0 130 C-0.33 130 -0.66 130 -1 130 C-1.02333731 113.34541621 -1.04098328 96.69083771 -1.05181217 80.03624153 C-1.05697336 72.3036151 -1.06401269 64.57099882 -1.07543945 56.83837891 C-1.0853917 50.10038429 -1.09185472 43.36239702 -1.09408849 36.62439525 C-1.09539468 33.05510033 -1.09847474 29.48582643 -1.10573006 25.91653824 C-1.11375463 21.93670501 -1.11399079 17.95689254 -1.11352539 13.97705078 C-1.11712067 12.7873468 -1.12071594 11.59764282 -1.12442017 10.37188721 C-1.1230455 9.29212616 -1.12167084 8.21236511 -1.12025452 7.09988403 C-1.12117631 6.1578116 -1.1220981 5.21573917 -1.12304783 4.24511909 C-1 2 -1 2 0 0 Z " fill="#1F1F1F" transform="translate(306,255)"/>
<path d="M0 0 C0.99 0.33 1.98 0.66 3 1 C3.07408587 5.09333905 3.1285704 9.18641933 3.16479492 13.28027344 C3.17989358 14.67324622 3.20037444 16.06617138 3.22631836 17.45898438 C3.26265122 19.45942885 3.27811192 21.46021827 3.29296875 23.4609375 C3.31653442 25.26763916 3.31653442 25.26763916 3.34057617 27.11083984 C3.22818604 28.0642627 3.1157959 29.01768555 3 30 C2.01 30.66 1.02 31.32 0 32 C-2.33201754 29.66798246 -3.90424616 27.99532508 -4.22705078 24.63989258 C-4.21657715 23.73392334 -4.20610352 22.8279541 -4.1953125 21.89453125 C-4.18886719 20.91162109 -4.18242188 19.92871094 -4.17578125 18.91601562 C-4.15902344 17.89185547 -4.14226562 16.86769531 -4.125 15.8125 C-4.11597656 14.77673828 -4.10695313 13.74097656 -4.09765625 12.67382812 C-4.0740786 10.11565315 -4.0411703 7.55794252 -4 5 C-3.01 5 -2.02 5 -1 5 C-0.67 3.35 -0.34 1.7 0 0 Z " fill="#080808" transform="translate(98,207)"/>
<path d="M0 0 C8.27423467 3.96416551 16.1242518 8.34511116 23.875 13.25 C24.91205078 13.90170166 25.94910156 14.55340332 27.01757812 15.22485352 C34.88730882 20.2072571 42.54304037 25.42040873 50 31 C46.50239843 31 45.59540927 30.30549729 42.73828125 28.39453125 C41.87759033 27.82895508 41.01689941 27.26337891 40.13012695 26.68066406 C38.73540161 25.75592285 38.73540161 25.75592285 37.3125 24.8125 C26.2720367 17.61956914 14.86183685 11.3089776 3.19458008 5.19824219 C1 4 1 4 -2 2 C-1.34 2 -0.68 2 0 2 C0 1.34 0 0.68 0 0 Z " fill="#C3C3C3" transform="translate(260,211)"/>
<path d="M0 0 C1.36067934 -0.00211134 2.7213574 -0.00536162 4.08203125 -0.00976562 C13.97345133 0.04480088 13.97345133 0.04480088 17.375 2.3125 C16.17508423 2.33437378 16.17508423 2.33437378 14.95092773 2.35668945 C-6.03843189 2.60742143 -6.03843189 2.60742143 -26.625 6.3125 C-26.625 5.6525 -26.625 4.9925 -26.625 4.3125 C-27.285 3.9825 -27.945 3.6525 -28.625 3.3125 C-18.9726592 0.59797172 -9.99894941 -0.12313977 0 0 Z " fill="#A2A2A2" transform="translate(150.625,169.6875)"/>
<path d="M0 0 C0 17.16 0 34.32 0 52 C-0.33 52 -0.66 52 -1 52 C-1.33 36.16 -1.66 20.32 -2 4 C-4.64 6.64 -7.28 9.28 -10 12 C-10.66 12 -11.32 12 -12 12 C-12 12.66 -12 13.32 -12 14 C-13.98 14.99 -13.98 14.99 -16 16 C-14.37482529 12.13447144 -11.86698229 9.3970187 -9.0625 6.3125 C-8.18722656 5.33925781 -7.31195313 4.36601562 -6.41015625 3.36328125 C-2.98016529 0 -2.98016529 0 0 0 Z " fill="#1A1A1A" transform="translate(397,333)"/>
<path d="M0 0 C3.91694071 0.13899687 7.83347102 0.28738133 11.75 0.4375 C12.86117188 0.47681641 13.97234375 0.51613281 15.1171875 0.55664062 C16.18710937 0.59853516 17.25703125 0.64042969 18.359375 0.68359375 C19.83615723 0.73858032 19.83615723 0.73858032 21.34277344 0.79467773 C24.55361968 1.04277785 27.12153015 1.56076507 30 3 C29.67 3.66 29.34 4.32 29 5 C25.50001799 5.02934711 22.00006821 5.04691445 18.5 5.0625 C17.02660156 5.07506836 17.02660156 5.07506836 15.5234375 5.08789062 C9.91325243 5.10659124 4.54849101 4.838879 -1 4 C-0.67 2.68 -0.34 1.36 0 0 Z " fill="#010101" transform="translate(357,445)"/>
<path d="M0 0 C-1 3 -1 3 -3.1875 4.1328125 C-9.20323474 6.25503003 -14.62939278 7.58225526 -21 8 C-19.68 7.67 -18.36 7.34 -17 7 C-17 6.34 -17 5.68 -17 5 C-18.98 5 -20.96 5 -23 5 C-23 4.67 -23 4.34 -23 4 C-22.05898438 3.80664062 -21.11796875 3.61328125 -20.1484375 3.4140625 C-18.90320313 3.15367187 -17.65796875 2.89328125 -16.375 2.625 C-15.14523437 2.36976563 -13.91546875 2.11453125 -12.6484375 1.8515625 C-9.02443832 1.07759956 -9.02443832 1.07759956 -5.7265625 -0.1640625 C-3 -1 -3 -1 0 0 Z " fill="#D8D8D8" transform="translate(410,447)"/>
<path d="M0 0 C-1.01841924 2.71964228 -1.75729778 3.84746839 -4.25 5.4140625 C-5.1575 5.81367188 -6.065 6.21328125 -7 6.625 C-7.886875 7.02976562 -8.77375 7.43453125 -9.6875 7.8515625 C-18.28308719 10.83163636 -26.09307558 11.1995499 -35.125 10.625 C-36.176875 10.56828125 -37.22875 10.5115625 -38.3125 10.453125 C-40.87585522 10.31330562 -43.43797325 10.16208871 -46 10 C-46 9.67 -46 9.34 -46 9 C-45.0570105 8.97812622 -45.0570105 8.97812622 -44.0949707 8.95581055 C-22.72790018 9.04843491 -22.72790018 9.04843491 -3.48828125 0.98828125 C-2 0 -2 0 0 0 Z " fill="#141414" transform="translate(416,417)"/>
<path d="M0 0 C3.465 1.485 3.465 1.485 7 3 C7 3.66 7 4.32 7 5 C11.455 5.99 11.455 5.99 16 7 C16 7.99 16 8.98 16 10 C16.99 10.33 17.98 10.66 19 11 C19.33 11.99 19.66 12.98 20 14 C16.85803807 13.05010453 14.17534198 12.10854503 11.375 10.375 C8.88043453 8.66597582 8.88043453 8.66597582 5 9 C4.67 8.01 4.34 7.02 4 6 C3.01 5.67 2.02 5.34 1 5 C1 4.34 1 3.68 1 3 C0.34 3 -0.32 3 -1 3 C-0.67 2.01 -0.34 1.02 0 0 Z " fill="#030303" transform="translate(244,401)"/>
<path d="M0 0 C2.31 1.98 4.62 3.96 7 6 C6.34 6.66 5.68 7.32 5 8 C4.01 7.01 3.02 6.02 2 5 C1.67 21.83 1.34 38.66 1 56 C0.67 56 0.34 56 0 56 C0 37.52 0 19.04 0 0 Z " fill="#353535" transform="translate(341,329)"/>
<path d="M0 0 C4.12638777 0.59210002 7.82177061 1.56054129 11.75 2.9375 C20.0098055 5.56953536 28.39484327 6.26600234 37 7 C32.44557227 10.03628515 28.34550163 9.51751019 23 9 C14.87256581 7.36947029 7.22959664 5.13119808 0 1 C0 0.67 0 0.34 0 0 Z " fill="#0F0F0F" transform="translate(454,328)"/>
<path d="M0 0 C0 0.66 0 1.32 0 2 C-3.60636233 3.12796398 -6.97144004 3.11416035 -10.734375 3.09765625 C-12.02988281 3.09443359 -13.32539063 3.09121094 -14.66015625 3.08789062 C-16.02343817 3.07953598 -17.38671942 3.07107104 -18.75 3.0625 C-20.12890465 3.05748168 -21.50781104 3.05291935 -22.88671875 3.04882812 C-26.25785659 3.03704093 -29.62890628 3.02058635 -33 3 C-33 2.34 -33 1.68 -33 1 C-29.18763538 0.83013993 -25.37509074 0.66470036 -21.5625 0.5 C-20.49322266 0.45230469 -19.42394531 0.40460938 -18.32226562 0.35546875 C-12.20770603 0.09368332 -6.12009114 -0.05148342 0 0 Z " fill="#FCFCFC" transform="translate(393,452)"/>
<path d="M0 0 C3.89570481 3.8450172 7.65552743 7.79719125 11.375 11.8125 C12.23001099 12.73409912 12.23001099 12.73409912 13.10229492 13.67431641 C17.14790631 18.0477946 21.13053314 22.46920608 25 27 C24.34 27.66 23.68 28.32 23 29 C16.91909053 22.4022682 10.85619865 15.79927479 5 9 C4.49339844 8.43410156 3.98679687 7.86820312 3.46484375 7.28515625 C0 3.33774373 0 3.33774373 0 0 Z " fill="#171717" transform="translate(333,269)"/>
<path d="M0 0 C1.765625 0.1015625 1.765625 0.1015625 4 1 C5.42047742 3.11877935 6.59123479 5.12059986 7.75 7.375 C11.33776297 14.02402344 15.39403407 19.99754439 20 26 C19.34 26.66 18.68 27.32 18 28 C4.91172879 9.97425626 4.91172879 9.97425626 0 0 Z " fill="#191919" transform="translate(146,270)"/>
<path d="M0 0 C4.15045789 3.35568936 7.7916683 6.79674712 11.3125 10.8125 C15.25214607 15.30139105 19.48440738 19.22362418 24.03125 23.08984375 C26 25 26 25 27 28 C26.34 28.66 25.68 29.32 25 30 C24.55011719 29.21882813 24.10023438 28.43765625 23.63671875 27.6328125 C19.45284063 21.35238549 13.40590647 16.37288838 8.00195312 11.16796875 C7.12087891 10.30558594 6.23980469 9.44320313 5.33203125 8.5546875 C4.52483643 7.77593262 3.7176416 6.99717773 2.88598633 6.19482422 C1.02075363 4.02415212 0.37361673 2.79556033 0 0 Z " fill="#1A1A1A" transform="translate(140,328)"/>
<path d="M0 0 C0.66 0 1.32 0 2 0 C2.25362305 0.59619141 2.50724609 1.19238281 2.76855469 1.80664062 C4.14620592 4.26041119 5.46280348 5.41160475 7.703125 7.09375 C8.43660156 7.64933594 9.17007813 8.20492188 9.92578125 8.77734375 C10.69277344 9.34582031 11.45976562 9.91429687 12.25 10.5 C13.00152344 11.06847656 13.75304687 11.63695312 14.52734375 12.22265625 C18.60160346 15.28723904 22.72499293 18.22260687 27 21 C26.34 21.66 25.68 22.32 25 23 C3.80101692 7.95159228 3.80101692 7.95159228 0 2 C0 1.34 0 0.68 0 0 Z " fill="#151515" transform="translate(221,344)"/>
<path d="M0 0 C2.44839588 3.67259383 4 6.54648201 4 11 C10.6 11 17.2 11 24 11 C24.33 9.68 24.66 8.36 25 7 C26.65 8.32 28.3 9.64 30 11 C26.42649959 11.81898622 23.14340521 12.11811958 19.48046875 12.09765625 C18.45888672 12.09443359 17.43730469 12.09121094 16.38476562 12.08789062 C15.32966797 12.07951172 14.27457031 12.07113281 13.1875 12.0625 C12.11306641 12.05798828 11.03863281 12.05347656 9.93164062 12.04882812 C7.28770317 12.03707729 4.64388048 12.02064787 2 12 C1.4654744 10.75579353 0.94791389 9.50429064 0.4375 8.25 C0.14746094 7.55390625 -0.14257812 6.8578125 -0.44140625 6.140625 C-1.07831803 3.69987216 -0.80248831 2.3596345 0 0 Z " fill="#151515" transform="translate(173,374)"/>
<path d="M0 0 C0.66 0.66 1.32 1.32 2 2 C0.77023438 3.16015625 0.77023438 3.16015625 -0.484375 4.34375 C-8.64448205 12.15281219 -8.64448205 12.15281219 -14 22 C-14.66 21.67 -15.32 21.34 -16 21 C-13.47221335 12.13984985 -7.27138166 5.45353624 0 0 Z " fill="#1C1C1C" transform="translate(113,181)"/>
<path d="M0 0 C3.97601133 0.61169405 6.75899044 2.78499319 10 5 C11.28803883 5.86090853 12.57714454 6.72022251 13.8671875 7.578125 C17.578125 10.05208333 21.2890625 12.52604167 25 15 C24.67 15.99 24.34 16.98 24 18 C5.75645756 5.55719557 5.75645756 5.55719557 0 1 C0 0.67 0 0.34 0 0 Z " fill="#161616" transform="translate(235,365)"/>
<path d="M0 0 C1.47146484 0.52400391 1.47146484 0.52400391 2.97265625 1.05859375 C12.44621505 4.29799303 20.97203833 5.8415121 31 6 C31 6.33 31 6.66 31 7 C20.05675209 9.2447688 11.41774712 7.07453933 1 4 C1 3.34 1 2.68 1 2 C0.34 1.67 -0.32 1.34 -1 1 C-0.67 0.67 -0.34 0.34 0 0 Z " fill="#111111" transform="translate(461,379)"/>
<path d="M0 0 C2.79063998 2.79063998 2.2892625 4.77453012 2.32226562 8.58789062 C2.31743164 9.87469727 2.31743164 9.87469727 2.3125 11.1875 C2.32861328 12.02603516 2.34472656 12.86457031 2.36132812 13.72851562 C2.36564103 19.25334415 1.52410699 23.07832437 -1 28 C-1.99 27.67 -2.98 27.34 -4 27 C-3.505 26.01 -3.01 25.02 -2.5 24 C-0.55142931 18.94646387 -0.78484916 13.87186027 -0.93554688 8.54882812 C-1.02355319 5.38363551 -1.0115649 3.03469469 0 0 Z " fill="#121212" transform="translate(539,334)"/>
<path d="M0 0 C0.66 0.66 1.32 1.32 2 2 C1.03900391 2.94359375 1.03900391 2.94359375 0.05859375 3.90625 C-4.65137796 8.56708638 -9.23589584 13.25797078 -13.52734375 18.30859375 C-14.95458403 19.94783789 -16.44512338 21.48225476 -18 23 C-18.66 22.67 -19.32 22.34 -20 22 C-18.625 19.5 -18.625 19.5 -17 17 C-16.34 17 -15.68 17 -15 17 C-15 16.34 -15 15.68 -15 15 C-13.49609375 13.5546875 -13.49609375 13.5546875 -11.4375 11.875 C-7.17201531 8.26340423 -3.56689436 4.29141978 0 0 Z " fill="#181818" transform="translate(410,265)"/>
<path d="M0 0 C9.87433155 1.24697873 17.57854256 6.5923119 24 14 C23.34 14.66 22.68 15.32 22 16 C22 15.34 22 14.68 22 14 C21.42894531 13.73058594 20.85789062 13.46117187 20.26953125 13.18359375 C17.93068948 11.96385355 15.84946456 10.5716511 13.6875 9.0625 C9.903048 6.49984956 6.26130427 4.63198887 2 3 C2 2.34 2 1.68 2 1 C1.34 0.67 0.68 0.34 0 0 Z " fill="#1E1E1E" transform="translate(504,257)"/>
<path d="M0 0 C14.15112369 -1.37603964 14.15112369 -1.37603964 18.55078125 1.8984375 C20.28667473 4.1956156 21.68393685 6.44295114 23 9 C23.99 10.485 23.99 10.485 25 12 C24.01 12 23.02 12 22 12 C20.84746717 10.5368349 19.75149578 9.02875669 18.6875 7.5 C15.92076209 4.18302904 14.6855403 3.11266129 10.36328125 2.40234375 C6.87014594 2.43413163 3.46992035 2.60524783 0 3 C0 2.01 0 1.02 0 0 Z " fill="#0C0C0C" transform="translate(306,255)"/>
<path d="M0 0 C0.66 0 1.32 0 2 0 C2.59066447 9.87722251 1.13506713 17.6647778 -2 27 C-3.43531133 24.71490146 -4.11605358 23.57813848 -3.57421875 20.87890625 C-3.28160156 20.11449219 -2.98898437 19.35007812 -2.6875 18.5625 C-0.62266862 12.45023365 -0.29135124 6.40972736 0 0 Z " fill="#9F9F9F" transform="translate(434,401)"/>
<path d="M0 0 C0.33 0 0.66 0 1 0 C1.37947904 5.95307741 0.10694466 10.39965221 -2 15.9375 C-2.28617187 16.71673828 -2.57234375 17.49597656 -2.8671875 18.29882812 C-3.56808874 20.20294317 -4.28265304 22.1020195 -5 24 C-5.99 24 -6.98 24 -8 24 C-5.69356492 15.86184696 -2.89571216 7.94317882 0 0 Z " fill="#262626" transform="translate(277,327)"/>
<path d="M0 0 C2.98335357 3.80328187 5.54366285 7.85720195 8.125 11.9375 C8.58003906 12.64068359 9.03507812 13.34386719 9.50390625 14.06835938 C11.78515401 17.67977089 13.57434957 20.64985257 14 25 C9.76054957 21.28668662 7.09470155 16.69714467 4.1875 11.9375 C3.67251953 11.12216797 3.15753906 10.30683594 2.62695312 9.46679688 C2.14548828 8.68240234 1.66402344 7.89800781 1.16796875 7.08984375 C0.72735107 6.37691162 0.2867334 5.66397949 -0.16723633 4.92944336 C-1 3 -1 3 0 0 Z " fill="#181818" transform="translate(104,278)"/>
<path d="M0 0 C1.07378906 0.54269531 2.14757812 1.08539063 3.25390625 1.64453125 C4.69004949 2.36729615 6.1262505 3.08994628 7.5625 3.8125 C8.26697266 4.16892578 8.97144531 4.52535156 9.69726562 4.89257812 C14.07378925 7.09092409 18.47874598 9.11663926 23 11 C22.67 11.66 22.34 12.32 22 13 C16.25669429 11.62643674 11.6425047 9.34956817 6.5625 6.375 C5.83095703 5.95476562 5.09941406 5.53453125 4.34570312 5.1015625 C2.55991266 4.07444119 0.77939632 3.03815919 -1 2 C-0.67 1.34 -0.34 0.68 0 0 Z " fill="#0A0A0A" transform="translate(259,421)"/>
<path d="M0 0 C2.75361142 2.75361142 3.47414027 5.99845364 4.625 9.625 C4.96917969 10.68460937 4.96917969 10.68460937 5.3203125 11.765625 C5.88562421 13.50866945 6.44352544 15.25411416 7 17 C6.01 17 5.02 17 4 17 C3.01 14.36 2.02 11.72 1 9 C0.01 9.66 -0.98 10.32 -2 11 C-3.13643966 7.59068103 -2.86747764 6.99664544 -1.5625 3.8125 C-1.13130859 2.73935547 -1.13130859 2.73935547 -0.69140625 1.64453125 C-0.46324219 1.10183594 -0.23507813 0.55914062 0 0 Z " fill="#171717" transform="translate(216,326)"/>
<path d="M0 0 C6.15996148 -0.43999725 11.4895297 0.39600201 17.4375 1.875 C18.14777344 2.04870117 18.85804688 2.22240234 19.58984375 2.40136719 C24.74122046 3.74122046 24.74122046 3.74122046 27 6 C22.31136347 6.19535986 18.45237745 5.75372363 13.93359375 4.51171875 C11.31720658 3.81930114 8.67442642 3.40116396 6 3 C6 2.67 6 2.34 6 2 C3.03 1.505 3.03 1.505 0 1 C0 0.67 0 0.34 0 0 Z " fill="#141414" transform="translate(492,307)"/>
<path d="M0 0 C0.33 0 0.66 0 1 0 C1.62034792 9.61539279 -1.13048672 17.36963273 -7 25 C-7.66 25.33 -8.32 25.66 -9 26 C-8.37958245 23.11537821 -7.46139876 20.77942186 -6.0625 18.1875 C-4.16795662 14.51553046 -3.000752 11.003008 -2 7 C-1.67 7 -1.34 7 -1 7 C-0.67 4.69 -0.34 2.38 0 0 Z " fill="#181818" transform="translate(429,404)"/>
<path d="M0 0 C8.52451088 1.2628905 14.77659871 10.77140808 20 17 C16.45300803 16.41244936 14.69489066 15.11216909 12.109375 12.65625 C11.40039062 11.98722656 10.69140625 11.31820313 9.9609375 10.62890625 C9.23132813 9.92636719 8.50171875 9.22382813 7.75 8.5 C7.00492188 7.79746094 6.25984375 7.09492188 5.4921875 6.37109375 C1.523407 2.59857163 1.523407 2.59857163 0 1 C0 0.67 0 0.34 0 0 Z " fill="#181818" transform="translate(196,332)"/>
<path d="M0 0 C6.41069287 5.27101414 12.18590512 11.09128152 18 17 C17.34 17.66 16.68 18.32 16 19 C13.6958874 16.78340239 11.4091166 14.5496827 9.125 12.3125 C8.14853516 11.37374023 8.14853516 11.37374023 7.15234375 10.41601562 C3.85718872 7.1718166 1.24747132 4.59455987 0 0 Z " fill="#1F1F1F" transform="translate(156,327)"/>
<path d="M0 0 C3.53555243 4.18814272 6.38750769 8.6567894 9.25 13.3125 C9.70890625 14.05306641 10.1678125 14.79363281 10.640625 15.55664062 C11.76330813 17.3693061 12.88205606 19.18440784 14 21 C13.34 21.66 12.68 22.32 12 23 C9.98524748 19.92607351 7.99087089 16.83943704 6 13.75 C5.42765625 12.87730469 4.8553125 12.00460937 4.265625 11.10546875 C3.45351562 9.83896484 3.45351562 9.83896484 2.625 8.546875 C2.12226562 7.77182617 1.61953125 6.99677734 1.1015625 6.19824219 C0 4 0 4 0 0 Z " fill="#1A1A1A" transform="translate(112,276)"/>
<path d="M0 0 C0 0.33 0 0.66 0 1 C-7.59 1 -15.18 1 -23 1 C-23 1.66 -23 2.32 -23 3 C-24.78871178 3.38885039 -26.58112874 3.76069196 -28.375 4.125 C-29.37273437 4.33382812 -30.37046875 4.54265625 -31.3984375 4.7578125 C-32.25695312 4.83773437 -33.11546875 4.91765625 -34 5 C-34.66 4.34 -35.32 3.68 -36 3 C-24.38410814 -1.27953911 -12.17686101 -0.28802619 0 0 Z " fill="#161616" transform="translate(165,176)"/>
<path d="M0 0 C0.33 0 0.66 0 1 0 C0.52432875 7.25398658 -1.29466594 13.26812223 -4 20 C-4.99 20 -5.98 20 -7 20 C-5.07443364 13.14381674 -2.7527517 6.56747868 0 0 Z " fill="#212121" transform="translate(300,264)"/>
<path d="M0 0 C3.75050546 0.5529775 6.14527213 1.50229658 9.20703125 3.72265625 C9.95791016 4.26083984 10.70878906 4.79902344 11.48242188 5.35351562 C12.25134766 5.91748047 13.02027344 6.48144531 13.8125 7.0625 C14.99489258 7.91424805 14.99489258 7.91424805 16.20117188 8.78320312 C18.13973082 10.18131534 20.07227224 11.58701082 22 13 C21.34 13.66 20.68 14.32 20 15 C17.22573826 13.06737326 14.45621513 11.12806267 11.6875 9.1875 C10.90181641 8.64029297 10.11613281 8.09308594 9.30664062 7.52929688 C8.54931641 6.99755859 7.79199219 6.46582031 7.01171875 5.91796875 C6.31522217 5.43094482 5.61872559 4.9439209 4.90112305 4.44213867 C3.10086029 3.07650979 1.55263976 1.63759953 0 0 Z " fill="#1A1A1A" transform="translate(203,387)"/>
<path d="M0 0 C2 3 2 3 2.30859375 5.35546875 C3.27651656 9.0576368 5.31225905 10.70151176 8.0625 13.3125 C8.98160156 14.19550781 9.90070313 15.07851563 10.84765625 15.98828125 C11.55792969 16.65214844 12.26820313 17.31601562 13 18 C12.34 18.66 11.68 19.32 11 20 C9.17114004 18.30672273 7.36329816 16.59769663 5.5625 14.875 C4.7880957 14.1634375 4.7880957 14.1634375 3.99804688 13.4375 C0.5667907 10.11837638 -0.84731635 7.7929388 -1 3 C-0.67 2.01 -0.34 1.02 0 0 Z " fill="#292929" transform="translate(191,311)"/>
<path d="M0 0 C6.37675492 -0.347823 11.07190918 0.71917476 17 3 C18.16208984 3.42925781 18.16208984 3.42925781 19.34765625 3.8671875 C21.23607828 4.56660307 23.11868738 5.28168064 25 6 C24.67 6.66 24.34 7.32 24 8 C15.93519961 5.86662595 7.96053614 3.49320448 0 1 C0 0.67 0 0.34 0 0 Z " fill="#121212" transform="translate(213,198)"/>
<path d="M0 0 C1.32 0.33 2.64 0.66 4 1 C3.360625 1.556875 2.72125 2.11375 2.0625 2.6875 C-0.26296983 5.29484496 -0.83125175 6.54066081 -1 10 C-0.15020525 12.75256244 -0.15020525 12.75256244 1 15 C0.01 15 -0.98 15 -2 15 C-4.10188936 11.58442978 -4.4871351 8.97827 -4 5 C-2 2.125 -2 2.125 0 0 Z " fill="#101010" transform="translate(475,289)"/>
<path d="M0 0 C5.75 2.625 5.75 2.625 8 6 C7.54716981 12.45283019 7.54716981 12.45283019 5 15 C4.01 14.67 3.02 14.34 2 14 C2.99 13.67 3.98 13.34 5 13 C4.95996945 8.89299223 4.95996945 8.89299223 4 5 C1.71019091 3.31016493 -0.21434833 2.81037139 -3 2 C-2.01 1.34 -1.02 0.68 0 0 Z " fill="#161616" transform="translate(500,337)"/>
<path d="M0 0 C2.96680942 2.96680942 3.53759451 6.47016225 4.6875 10.4375 C4.92533203 11.21416016 5.16316406 11.99082031 5.40820312 12.79101562 C5.62798828 13.53931641 5.84777344 14.28761719 6.07421875 15.05859375 C6.27619873 15.74236084 6.47817871 16.42612793 6.6862793 17.13061523 C7 19 7 19 6 22 C3.92093577 18.88140365 2.9857867 16.25435952 1.875 12.6875 C1.52179688 11.57761719 1.16859375 10.46773438 0.8046875 9.32421875 C0.01811591 6.07483807 -0.15099513 3.32692608 0 0 Z " fill="#121212" transform="translate(234,285)"/>
<path d="M0 0 C2.733765 0.61483325 5.14174118 1.42927383 7.671875 2.62890625 C8.33574219 2.94150391 8.99960937 3.25410156 9.68359375 3.57617188 C10.36550781 3.90166016 11.04742187 4.22714844 11.75 4.5625 C12.44738281 4.89185547 13.14476562 5.22121094 13.86328125 5.56054688 C15.5770467 6.37047712 17.28873194 7.18480638 19 8 C19 8.33 19 8.66 19 9 C11.83292123 8.67422369 6.23072876 5.34556372 0 2 C0 1.34 0 0.68 0 0 Z " fill="#101010" transform="translate(294,401)"/>
<path d="M0 0 C5.51631498 0.46676511 8.92721846 2.53076582 13.375 5.5625 C14.01566406 5.98724609 14.65632813 6.41199219 15.31640625 6.84960938 C16.8837215 7.89058742 18.44273501 8.94404634 20 10 C19.34 10.66 18.68 11.32 18 12 C17.03578125 11.37351563 16.0715625 10.74703125 15.078125 10.1015625 C13.8021532 9.27593369 12.52610765 8.45041884 11.25 7.625 C10.61578125 7.2125 9.9815625 6.8 9.328125 6.375 C6.28644824 4.41058376 3.29809453 2.51579092 0 1 C0 0.67 0 0.34 0 0 Z " fill="#141414" transform="translate(281,227)"/>
<path d="M0 0 C1.87560856 2.81341284 3.03975986 5.2968416 4.25 8.4375 C4.62640625 9.38496094 5.0028125 10.33242188 5.390625 11.30859375 C6 14 6 14 5.109375 16.34765625 C4.74328125 16.89292969 4.3771875 17.43820312 4 18 C3.13007846 15.94409546 2.27962311 13.87994664 1.4375 11.8125 C0.96183594 10.66394531 0.48617187 9.51539063 -0.00390625 8.33203125 C-1.01536316 4.94860873 -1.04283184 3.31583059 0 0 Z " fill="#262626" transform="translate(167,357)"/>
<path d="M0 0 C0.88945312 0.00322266 1.77890625 0.00644531 2.6953125 0.00976562 C4.07589844 0.02233398 4.07589844 0.02233398 5.484375 0.03515625 C6.42023438 0.03966797 7.35609375 0.04417969 8.3203125 0.04882812 C10.62506541 0.06058707 12.92968727 0.07702199 15.234375 0.09765625 C15.234375 0.42765625 15.234375 0.75765625 15.234375 1.09765625 C12.17233826 1.43533797 9.10968042 1.76702518 6.046875 2.09765625 C4.75040039 2.24074219 4.75040039 2.24074219 3.42773438 2.38671875 C-0.65355425 2.82455814 -4.65351002 3.23387538 -8.765625 3.09765625 C-8.765625 2.43765625 -8.765625 1.77765625 -8.765625 1.09765625 C-5.76855805 0.22802538 -3.11605974 -0.01997474 0 0 Z " fill="#111111" transform="translate(481.765625,254.90234375)"/>
<path d="M0 0 C2.31 0.33 4.62 0.66 7 1 C3.27459338 3.48360441 1.36937027 3.2315867 -3.07421875 3.1953125 C-3.7580513 3.1924826 -4.44188385 3.18965271 -5.1464386 3.18673706 C-7.32697165 3.17555684 -9.50709145 3.15045691 -11.6875 3.125 C-13.16731177 3.11496738 -14.64712999 3.10584202 -16.12695312 3.09765625 C-19.751436 3.07562481 -23.37567766 3.04111002 -27 3 C-27 2.67 -27 2.34 -27 2 C-18.09 2 -9.18 2 0 2 C0 1.34 0 0.68 0 0 Z " fill="#181818" transform="translate(387,455)"/>
<path d="M0 0 C0.66 0 1.32 0 2 0 C2 6.6 2 13.2 2 20 C-1.45015205 15.39979727 -1.22331682 13.11765168 -0.6875 7.75 C-0.62626953 7.00492187 -0.56503906 6.25984375 -0.50195312 5.4921875 C-0.3492857 3.66017845 -0.17660246 1.82985684 0 0 Z " fill="#BCBCBC" transform="translate(426,391)"/>
<path d="M0 0 C4.88049925 3.9419417 9.0580583 8.11950075 13 13 C12.67 13.66 12.34 14.32 12 15 C9.99068029 13.07141188 7.99272731 11.133102 6 9.1875 C5.42765625 8.64029297 4.8553125 8.09308594 4.265625 7.52929688 C2.78599462 6.07608846 1.38703342 4.54183626 0 3 C0 2.01 0 1.02 0 0 Z " fill="#212121" transform="translate(354,343)"/>
<path d="M0 0 C1.99170912 2.98756368 3.02907979 5.55424386 4.1875 8.9375 C4.55230469 9.97777344 4.91710937 11.01804687 5.29296875 12.08984375 C5.98896034 14.95456052 6.02529944 16.28981357 5 19 C1.06756918 13.10135377 -0.44895473 7.03362418 0 0 Z " fill="#131313" transform="translate(228,266)"/>
<path d="M0 0 C3.99881788 0.61520275 6.80358226 2.60268669 10 5 C10 5.66 10 6.32 10 7 C11.32 7.66 12.64 8.32 14 9 C14 9.99 14 10.98 14 12 C9.21586287 8.46653832 4.47785614 4.91812412 0 1 C0 0.67 0 0.34 0 0 Z " fill="#1B1B1B" transform="translate(216,350)"/>
<path d="M0 0 C2.3223428 2.8762349 3.86565842 5.63780422 5.25 9.0625 C5.60578125 9.91972656 5.9615625 10.77695312 6.328125 11.66015625 C7 14 7 14 6 17 C3.6776572 14.1237651 2.13434158 11.36219578 0.75 7.9375 C0.39421875 7.08027344 0.0384375 6.22304687 -0.328125 5.33984375 C-1 3 -1 3 0 0 Z " fill="#1C1C1C" transform="translate(138,248)"/>
<path d="M0 0 C6.39205856 0.72362927 12.68027076 1.80343362 19 3 C19 3.33 19 3.66 19 4 C12.93179132 5.08360869 8.89893243 4.79074734 3 3 C3 2.34 3 1.68 3 1 C2.01 0.67 1.02 0.34 0 0 Z " fill="#171717" transform="translate(349,422)"/>
<path d="M0 0 C1.35304209 4.05912626 0.15216503 5.77149591 -1.4375 9.6875 C-1.91058594 10.86699219 -2.38367188 12.04648437 -2.87109375 13.26171875 C-3.24363281 14.16535156 -3.61617188 15.06898438 -4 16 C-5.109375 14.35546875 -5.109375 14.35546875 -6 12 C-5.390625 9.23828125 -5.390625 9.23828125 -4.25 6.3125 C-3.88390625 5.33925781 -3.5178125 4.36601562 -3.140625 3.36328125 C-2 1 -2 1 0 0 Z " fill="#242424" transform="translate(284,312)"/>
<path d="M0 0 C2.79443385 2.71406296 5.33168304 5.50859973 7.75 8.5625 C8.67039063 9.70912109 8.67039063 9.70912109 9.609375 10.87890625 C11 13 11 13 11 16 C8.14116069 13.2252442 5.36491168 10.38837653 2.6875 7.4375 C2.17574219 6.87933594 1.66398437 6.32117188 1.13671875 5.74609375 C0 4 0 4 0 0 Z " fill="#1C1C1C" transform="translate(120,303)"/>
<path d="M0 0 C1.1484375 1.546875 1.1484375 1.546875 2 4 C1.33168497 6.56865429 0.60698344 8.80991993 -0.375 11.25 C-0.6225 11.8996875 -0.87 12.549375 -1.125 13.21875 C-1.73639014 14.81777037 -2.36640959 16.40964556 -3 18 C-3.66 17.67 -4.32 17.34 -5 17 C-4.80664062 16.35933594 -4.61328125 15.71867187 -4.4140625 15.05859375 C-2.9059252 10.04889015 -1.42282214 5.03460143 0 0 Z " fill="#191919" transform="translate(289,293)"/>
<path d="M0 0 C-0.33 0.33 -0.66 0.66 -1 1 C-0.34 1.66 0.32 2.32 1 3 C-2 5 -2 5 -4.125 4.8125 C-4.74375 4.544375 -5.3625 4.27625 -6 4 C-6.33 3.01 -6.66 2.02 -7 1 C-7.99 0.34 -8.98 -0.32 -10 -1 C-3.375 -2.25 -3.375 -2.25 0 0 Z " fill="#161616" transform="translate(399,445)"/>
<path d="M0 0 C5.31027254 1.46032495 9.46330032 3.98320986 14 7 C13.34 7.66 12.68 8.32 12 9 C9.99492073 7.88407791 7.99603904 6.75701288 6 5.625 C4.88625 4.99851562 3.7725 4.37203125 2.625 3.7265625 C1.75875 3.15679687 0.8925 2.58703125 0 2 C0 1.34 0 0.68 0 0 Z " fill="#191919" transform="translate(251,409)"/>
<path d="M0 0 C0.33 0.99 0.66 1.98 1 3 C-1.44489409 6.91183055 -5.05716799 10.60613771 -9 13 C-9.66 13 -10.32 13 -11 13 C-9.63696103 9.84456479 -8.1817387 8.06811867 -5.5 5.9375 C-3.06335088 3.99127814 -1.77737879 2.66606818 0 0 Z " fill="#121212" transform="translate(533,365)"/>
<path d="M0 0 C0 0.66 0 1.32 0 2 C-2.30078125 3.9453125 -2.30078125 3.9453125 -5.3125 6.125 C-6.29863281 6.84945313 -7.28476562 7.57390625 -8.30078125 8.3203125 C-11 10 -11 10 -14 10 C-4.57142857 0 -4.57142857 0 0 0 Z " fill="#151515" transform="translate(462,261)"/>
<path d="M0 0 C1 3 1 3 -0.14453125 5.8828125 C-0.69496094 6.95273437 -1.24539063 8.02265625 -1.8125 9.125 C-2.35519531 10.20007813 -2.89789063 11.27515625 -3.45703125 12.3828125 C-5 15 -5 15 -7 16 C-6.28269264 12.76834156 -5.18684926 9.81292078 -3.9375 6.75 C-3.57527344 5.85796875 -3.21304687 4.9659375 -2.83984375 4.046875 C-2.56269531 3.37140625 -2.28554688 2.6959375 -2 2 C-1.34 2 -0.68 2 0 2 C0 1.34 0 0.68 0 0 Z " fill="#121212" transform="translate(435,420)"/>
<path d="M0 0 C2.27734375 0.171875 2.27734375 0.171875 4.9375 0.75 C6.25041016 1.02070313 6.25041016 1.02070313 7.58984375 1.296875 C10 2 10 2 13 4 C9.02840314 5.08056059 6.57446843 4.85815614 2.6875 3.5625 C1.36298828 3.13130859 1.36298828 3.13130859 0.01171875 2.69140625 C-0.65214844 2.46324219 -1.31601562 2.23507812 -2 2 C-1.34 1.34 -0.68 0.68 0 0 Z " fill="#222222" transform="translate(335,418)"/>
<path d="M0 0 C6.86830595 1.52629021 11.54114603 4.69251721 17 9 C14 9 14 9 12.125 7.5625 C10.10334485 5.82335481 10.10334485 5.82335481 7.5625 5.625 C3.99317484 4.75443289 2.40672 2.68177372 0 0 Z " fill="#363636" transform="translate(301,239)"/>
<path d="M0 0 C3.9036874 3.46994436 6.36588975 7.55224006 9 12 C8.01 12 7.02 12 6 12 C4.17578125 9.8125 4.17578125 9.8125 2.3125 7 C1.68988281 6.071875 1.06726563 5.14375 0.42578125 4.1875 C-0.04472656 3.465625 -0.51523438 2.74375 -1 2 C-0.67 1.34 -0.34 0.68 0 0 Z " fill="#1B1B1B" transform="translate(160,279)"/>
<path d="M0 0 C2.57146057 2.57146057 2.80117997 4.6050417 3.625 8.125 C3.88539063 9.22070312 4.14578125 10.31640625 4.4140625 11.4453125 C4.70410156 12.70988281 4.70410156 12.70988281 5 14 C4.01 14.495 4.01 14.495 3 15 C2.30359327 12.87790224 1.61811643 10.75221473 0.9375 8.625 C0.55464844 7.44164062 0.17179688 6.25828125 -0.22265625 5.0390625 C-1 2 -1 2 0 0 Z " fill="#121212" transform="translate(169,260)"/>
<path d="M0 0 C4.62 2.31 9.24 4.62 14 7 C13.67 7.66 13.34 8.32 13 9 C8.33138019 7.39516194 3.90741833 5.02509806 0 2 C0 1.34 0 0.68 0 0 Z " fill="#151515" transform="translate(266,217)"/>
<path d="M0 0 C2 0 2 0 3.65625 1.64453125 C4.56890625 2.71767578 4.56890625 2.71767578 5.5 3.8125 C6.41265625 4.87404297 6.41265625 4.87404297 7.34375 5.95703125 C9 8 9 8 11 11 C8 11 8 11 5.95703125 9.1015625 C5.24933594 8.28429687 4.54164063 7.46703125 3.8125 6.625 C3.09707031 5.81289063 2.38164062 5.00078125 1.64453125 4.1640625 C0 2 0 2 0 0 Z " fill="#202020" transform="translate(148,326)"/>
<path d="M0 0 C1.79398267 0.95399078 3.58511655 1.91334026 5.375 2.875 C6.37273437 3.40867187 7.37046875 3.94234375 8.3984375 4.4921875 C11 6 11 6 13 8 C12.01 8.495 12.01 8.495 11 9 C8.96855359 8.06553465 6.96466413 7.06775224 5 6 C5 5.34 5 4.68 5 4 C4.38125 3.87625 3.7625 3.7525 3.125 3.625 C1 3 1 3 -1 1 C-0.67 0.67 -0.34 0.34 0 0 Z " fill="#131313" transform="translate(246,400)"/>
<path d="M0 0 C2.78633115 4.17949673 4 6.93375326 4 12 C3.34 12 2.68 12 2 12 C1.4654744 10.75579353 0.94791389 9.50429064 0.4375 8.25 C0.14746094 7.55390625 -0.14257812 6.8578125 -0.44140625 6.140625 C-1.07831803 3.69987216 -0.80248831 2.3596345 0 0 Z " fill="#1C1C1C" transform="translate(173,374)"/>
<path d="M0 0 C1.85772162 0.08984301 3.71247985 0.24611861 5.5625 0.4375 C7.08037109 0.59025391 7.08037109 0.59025391 8.62890625 0.74609375 C9.80259766 0.87177734 9.80259766 0.87177734 11 1 C11 1.99 11 2.98 11 4 C2.42857143 3.14285714 2.42857143 3.14285714 -1 1 C-0.67 0.67 -0.34 0.34 0 0 Z " fill="#212121" transform="translate(479,305)"/>
<path d="M0 0 C0.66 0 1.32 0 2 0 C3.28406399 1.95224208 4.47941678 3.96340762 5.625 6 C6.25664062 7.11375 6.88828125 8.2275 7.5390625 9.375 C8.26222656 10.674375 8.26222656 10.674375 9 12 C8.01 12 7.02 12 6 12 C4.39453125 9.8828125 4.39453125 9.8828125 2.8125 7.125 C2.01779297 5.76761719 2.01779297 5.76761719 1.20703125 4.3828125 C0 2 0 2 0 0 Z " fill="#161616" transform="translate(151,266)"/>
<path d="M0 0 C4.83628305 0.99043705 9.47618873 1.95698846 14 4 C12.5 5.1875 12.5 5.1875 10 6 C7.21175762 5.27101296 4.62334908 4.1843275 2 3 C2 2.34 2 1.68 2 1 C1.34 0.67 0.68 0.34 0 0 Z " fill="#181818" transform="translate(204,185)"/>
<path d="M0 0 C2.99220268 1.36370299 5.29026529 2.94908083 7.75 5.125 C8.67039063 5.93324219 8.67039063 5.93324219 9.609375 6.7578125 C10.06828125 7.16773438 10.5271875 7.57765625 11 8 C10.34 8.66 9.68 9.32 9 10 C7.68113228 8.90344712 6.37009943 7.79746577 5.0625 6.6875 C4.33160156 6.07261719 3.60070312 5.45773437 2.84765625 4.82421875 C1 3 1 3 0 0 Z " fill="#171717" transform="translate(195,370)"/>
<path d="M0 0 C0.66 0 1.32 0 2 0 C1.44894091 3.9492568 0.61064629 7.34920174 -1 11 C-1.99 11 -2.98 11 -4 11 C-3.5247412 9.35303396 -3.04468109 7.70745272 -2.5625 6.0625 C-2.29566406 5.14597656 -2.02882813 4.22945313 -1.75390625 3.28515625 C-1 1 -1 1 0 0 Z " fill="#191919" transform="translate(273,340)"/>
<path d="M0 0 C0.33 0 0.66 0 1 0 C1.85330338 5.83475015 2.48351814 10.44860651 0 16 C-0.66 16 -1.32 16 -2 16 C-1.34 10.72 -0.68 5.44 0 0 Z " fill="#131313" transform="translate(424,392)"/>
<path d="M0 0 C1.43791516 0.14168137 2.8753237 0.28851043 4.3125 0.4375 C5.11300781 0.51871094 5.91351563 0.59992188 6.73828125 0.68359375 C9 1 9 1 12 2 C12 2.66 12 3.32 12 4 C10.37399059 3.9129995 8.74910322 3.8048219 7.125 3.6875 C6.22007812 3.62949219 5.31515625 3.57148438 4.3828125 3.51171875 C2 3 2 3 0 0 Z " fill="#212121" transform="translate(188,191)"/>
<path d="M0 0 C0.66 0 1.32 0 2 0 C1.38461538 5.53846154 1.38461538 5.53846154 -0.5625 7.875 C-1.2740625 8.431875 -1.2740625 8.431875 -2 9 C-2.66 8.67 -3.32 8.34 -4 8 C-2.87548273 5.0280615 -1.77706209 2.66559313 0 0 Z " fill="#D5D5D5" transform="translate(429,426)"/>
<path d="M0 0 C5.02692063 0.45699278 8.14896261 2.99241748 12 6 C11.34 6.66 10.68 7.32 10 8 C8.33055479 6.85821872 6.6645052 5.71147095 5 4.5625 C4.071875 3.92441406 3.14375 3.28632813 2.1875 2.62890625 C1.465625 2.09136719 0.74375 1.55382812 0 1 C0 0.67 0 0.34 0 0 Z " fill="#1B1B1B" transform="translate(236,359)"/>
<path d="M0 0 C2.0625 1.5625 2.0625 1.5625 4 4 C3.75 7.75 3.75 7.75 3 11 C2.34 11 1.68 11 1 11 C-1.125 3.375 -1.125 3.375 0 0 Z " fill="#272727" transform="translate(244,316)"/>
<path d="M0 0 C2.631724 2.45627573 4.81527263 4.55352037 6 8 C5.625 10.25 5.625 10.25 5 12 C0 4.5 0 4.5 0 0 Z " fill="#131313" transform="translate(529,273)"/>
<path d="M0 0 C3.69790046 1.23263349 3.9354846 2.20052451 5.6875 5.5625 C6.12449219 6.38878906 6.56148438 7.21507812 7.01171875 8.06640625 C7.33785156 8.70449219 7.66398437 9.34257812 8 10 C7.01 10 6.02 10 5 10 C3.61328125 8.3203125 3.61328125 8.3203125 2.3125 6.125 C1.87550781 5.40570313 1.43851562 4.68640625 0.98828125 3.9453125 C0 2 0 2 0 0 Z " fill="#191919" transform="translate(115,274)"/>
<path d="M0 0 C4.56454251 0.54339792 7.9728176 1.79463821 12 4 C11.01 4.66 10.02 5.32 9 6 C5.3125 4.625 5.3125 4.625 2 3 C2 2.34 2 1.68 2 1 C1.34 0.67 0.68 0.34 0 0 Z " fill="#171717" transform="translate(504,257)"/>
<path d="M0 0 C5.62541841 0.45003347 8.61487125 1.68441485 13 5 C10 6 10 6 7.51953125 5.00390625 C6.62621094 4.52824219 5.73289062 4.05257812 4.8125 3.5625 C3.91144531 3.08941406 3.01039063 2.61632812 2.08203125 2.12890625 C1.39496094 1.75636719 0.70789063 1.38382813 0 1 C0 0.67 0 0.34 0 0 Z " fill="#D0D0D0" transform="translate(270,219)"/>
<path d="M0 0 C1.12894876 0.93274109 2.25300876 1.87140122 3.375 2.8125 C4.00148437 3.33457031 4.62796875 3.85664063 5.2734375 4.39453125 C7 6 7 6 9 9 C4.74822077 8.52758009 2.70030797 6.15035929 0 3 C0 2.01 0 1.02 0 0 Z " fill="#0C0C0C" transform="translate(189,323)"/>
<path d="M0 0 C0.66 0.99 1.32 1.98 2 3 C1.5390625 5.26171875 1.5390625 5.26171875 0.625 7.6875 C0.18027344 8.89986328 0.18027344 8.89986328 -0.2734375 10.13671875 C-0.51320312 10.75160156 -0.75296875 11.36648438 -1 12 C-1.66 11.67 -2.32 11.34 -3 11 C-2.69078116 9.54096742 -2.37751201 8.08279278 -2.0625 6.625 C-1.88847656 5.81289063 -1.71445313 5.00078125 -1.53515625 4.1640625 C-1 2 -1 2 0 0 Z " fill="#181818" transform="translate(255,288)"/>
<path d="M0 0 C-1.55500981 3.81684226 -4.03595495 6.19195732 -7 9 C-7.66 8.67 -8.32 8.34 -9 8 C-7.625 5.5 -7.625 5.5 -6 3 C-5.34 3 -4.68 3 -4 3 C-4 2.34 -4 1.68 -4 1 C-2 0 -2 0 0 0 Z " fill="#0D0D0D" transform="translate(399,279)"/>
<path d="M0 0 C0.33 0.99 0.66 1.98 1 3 C1.66 3 2.32 3 3 3 C3.66 5.31 4.32 7.62 5 10 C4.34 10.66 3.68 11.32 3 12 C2.49166409 10.75336669 1.99368855 9.50250613 1.5 8.25 C1.2215625 7.55390625 0.943125 6.8578125 0.65625 6.140625 C0 4 0 4 0 0 Z " fill="#151515" transform="translate(88,243)"/>
<path d="M0 0 C5.23175837 -0.38281159 8.37802694 0.78145293 13 3 C12.67 3.66 12.34 4.32 12 5 C10.56068883 4.54738642 9.12361001 4.08767021 7.6875 3.625 C6.88699219 3.36976563 6.08648437 3.11453125 5.26171875 2.8515625 C3 2 3 2 0 0 Z " fill="#131313" transform="translate(237,206)"/>
<path d="M0 0 C1.32 0.33 2.64 0.66 4 1 C3.071875 1.763125 2.14375 2.52625 1.1875 3.3125 C-0.98276101 5.11848552 -3.05568065 6.9476629 -5 9 C-5 4.61031544 -2.87194899 3.23094261 0 0 Z " fill="#262626" transform="translate(143,200)"/>
<path d="M0 0 C-0.99 0.495 -0.99 0.495 -2 1 C-1.01 1.66 -0.02 2.32 1 3 C-3.455 3.495 -3.455 3.495 -8 4 C-6.68 3.67 -5.36 3.34 -4 3 C-4 2.34 -4 1.68 -4 1 C-5.98 1 -7.96 1 -10 1 C-10 0.67 -10 0.34 -10 0 C-6.33694766 -0.74926071 -3.57644848 -1.2380014 0 0 Z " fill="#B1B1B1" transform="translate(397,451)"/>
<path d="M0 0 C2.8203125 0.2421875 2.8203125 0.2421875 6.125 0.875 C7.22070312 1.07867187 8.31640625 1.28234375 9.4453125 1.4921875 C10.28835938 1.65976562 11.13140625 1.82734375 12 2 C9.56661348 3.53508028 8.32875493 4.03088304 5.421875 3.7578125 C4.09929687 3.44457031 4.09929687 3.44457031 2.75 3.125 C1.85796875 2.92132813 0.9659375 2.71765625 0.046875 2.5078125 C-0.62859375 2.34023438 -1.3040625 2.17265625 -2 2 C-1.34 1.34 -0.68 0.68 0 0 Z " fill="#1A1A1A" transform="translate(336,445)"/>
<path d="M0 0 C3.0831351 1.19899698 6.06279492 2.47700477 9 4 C8.67 4.99 8.34 5.98 8 7 C6.66144944 6.21718695 5.32926356 5.42348123 4 4.625 C3.2575 4.18414062 2.515 3.74328125 1.75 3.2890625 C1.1725 2.86367188 0.595 2.43828125 0 2 C0 1.34 0 0.68 0 0 Z " fill="#171717" transform="translate(269,387)"/>
<path d="M0 0 C-3.90898316 2.60598877 -6.33080658 2.70354328 -11 3 C-11.66 2.34 -12.32 1.68 -13 1 C-8.59085217 -0.10228696 -4.51617599 -0.07654536 0 0 Z " fill="#1B1B1B" transform="translate(512,383)"/>
<path d="M0 0 C1.15518918 0.90484792 2.29885406 1.8244206 3.4375 2.75 C4.07558594 3.26046875 4.71367187 3.7709375 5.37109375 4.296875 C7.18810554 6.19667629 7.60423197 7.43586908 8 10 C6.84481082 9.09515208 5.70114594 8.1755794 4.5625 7.25 C3.60537109 6.48429687 3.60537109 6.48429687 2.62890625 5.703125 C0.81189446 3.80332371 0.39576803 2.56413092 0 0 Z " fill="#252525" transform="translate(140,328)"/>
<path d="M0 0 C0.556875 0.721875 1.11375 1.44375 1.6875 2.1875 C3.97909334 4.97457299 6.41459857 7.48641528 9 10 C6 10 6 10 4.17578125 8.46875 C3.56089844 7.8190625 2.94601562 7.169375 2.3125 6.5 C1.68988281 5.8503125 1.06726563 5.200625 0.42578125 4.53125 C-0.04472656 4.0259375 -0.51523437 3.520625 -1 3 C-0.67 2.01 -0.34 1.02 0 0 Z " fill="#1C1C1C" transform="translate(445,316)"/>
<path d="M0 0 C4.62 0 9.24 0 14 0 C14 0.33 14 0.66 14 1 C12.73542969 1.05607422 12.73542969 1.05607422 11.4453125 1.11328125 C9.80175781 1.21189453 9.80175781 1.21189453 8.125 1.3125 C7.03445313 1.37050781 5.94390625 1.42851562 4.8203125 1.48828125 C3.42425781 1.74158203 3.42425781 1.74158203 2 2 C1.01 3.485 1.01 3.485 0 5 C-0.66 5 -1.32 5 -2 5 C-1.34 3.35 -0.68 1.7 0 0 Z " fill="#131313" transform="translate(418,255)"/>
<path d="M0 0 C0.86625 0.556875 0.86625 0.556875 1.75 1.125 C0.76 2.61 0.76 2.61 -0.25 4.125 C-3.375 4.3125 -3.375 4.3125 -6.25 4.125 C-6.25 3.135 -6.25 2.145 -6.25 1.125 C-2.80384615 -1.09038462 -2.80384615 -1.09038462 0 0 Z " fill="#0B0B0B" transform="translate(141.25,172.875)"/>
<path d="M0 0 C2.97 0.495 2.97 0.495 6 1 C6 1.66 6 2.32 6 3 C7.65 3.33 9.3 3.66 11 4 C10.67 4.66 10.34 5.32 10 6 C6.00499382 4.6302836 3.19990508 2.74277578 0 0 Z " fill="#161616" transform="translate(239,403)"/>
<path d="M0 0 C4.79280002 0.80904103 6.13520113 3.25984591 9 7 C6 7 6 7 4.39453125 5.46875 C3.87246094 4.8190625 3.35039062 4.169375 2.8125 3.5 C2.28269531 2.8503125 1.75289062 2.200625 1.20703125 1.53125 C0.80871094 1.0259375 0.41039062 0.520625 0 0 Z " fill="#292929" transform="translate(166,346)"/>
<path d="M0 0 C0.99 0.66 1.98 1.32 3 2 C0.03 4.475 0.03 4.475 -3 7 C-2.25 2.25 -2.25 2.25 0 0 Z " fill="#131313" transform="translate(393,334)"/>
<path d="M0 0 C2.95929119 2.75520215 5.03681826 5.46627288 7 9 C6.01 9 5.02 9 4 9 C3.34 7.35 2.68 5.7 2 4 C1.34 4 0.68 4 0 4 C-0.33 3.01 -0.66 2.02 -1 1 C-0.67 0.67 -0.34 0.34 0 0 Z " fill="#222222" transform="translate(127,291)"/>
<path d="M0 0 C2.18975773 3.28463659 2.99806563 6.20696275 4 10 C1 9 1 9 -0.25 6.6875 C-1.0275526 3.90126985 -0.98726527 2.66561622 0 0 Z " fill="#181818" transform="translate(93,254)"/>
<path d="M0 0 C0.66 0.66 1.32 1.32 2 2 C0.8803014 3.00593243 -0.2459412 4.0045849 -1.375 5 C-2.00148438 5.556875 -2.62796875 6.11375 -3.2734375 6.6875 C-5 8 -5 8 -7 8 C-5.50902342 4.2047869 -3.24299151 2.38957269 0 0 Z " fill="#141414" transform="translate(104,180)"/>
<path d="M0 0 C6.75 0.875 6.75 0.875 9 2 C9 2.66 9 3.32 9 4 C9.66 4.33 10.32 4.66 11 5 C7.08406554 4.21681311 3.63593365 2.60820142 0 1 C0 0.67 0 0.34 0 0 Z " fill="#0E0E0E" transform="translate(284,435)"/>
<path d="M0 0 C2.74060659 2.74060659 3.21038333 5.24932082 4 9 C3.01 10.485 3.01 10.485 2 12 C1.47026689 10.37787941 0.95146893 8.75218416 0.4375 7.125 C0.14746094 6.22007812 -0.14257812 5.31515625 -0.44140625 4.3828125 C-1 2 -1 2 0 0 Z " fill="#0B0B0B" transform="translate(241,307)"/>
<path d="M0 0 C2.97 0.99 5.94 1.98 9 3 C8.01 3.66 7.02 4.32 6 5 C3.95703125 4.5390625 3.95703125 4.5390625 1.8125 3.625 C1.09707031 3.32851562 0.38164062 3.03203125 -0.35546875 2.7265625 C-0.89816406 2.48679688 -1.44085938 2.24703125 -2 2 C-1.34 1.34 -0.68 0.68 0 0 Z " fill="#202020" transform="translate(221,191)"/>
<path d="M0 0 C1.8871875 0.0309375 1.8871875 0.0309375 3.8125 0.0625 C0.87232662 1.58703435 -2.04222185 3.01407395 -5.1875 4.0625 C-6.1775 3.7325 -7.1675 3.4025 -8.1875 3.0625 C-6.45706736 -0.39836529 -3.47359009 -0.0569441 0 0 Z " fill="#151515" transform="translate(130.1875,174.9375)"/>
<path d="M0 0 C0 0.66 0 1.32 0 2 C-5.17578125 5.22265625 -5.17578125 5.22265625 -7 6 C-7.99 5.67 -8.98 5.34 -10 5 C-8.90241493 4.15801693 -7.79664683 3.32669329 -6.6875 2.5 C-6.07261719 2.0359375 -5.45773438 1.571875 -4.82421875 1.09375 C-3 0 -3 0 0 0 Z " fill="#111111" transform="translate(116,174)"/>
<path d="M0 0 C0 0.99 0 1.98 0 3 C-1.98 3.33 -3.96 3.66 -6 4 C-6 3.34 -6 2.68 -6 2 C-6.66 1.67 -7.32 1.34 -8 1 C-5.07175348 0.02391783 -3.04386724 -0.08226668 0 0 Z " fill="#CFCFCF" transform="translate(130,172)"/>
<path d="M0 0 C2.125 0.375 2.125 0.375 4 1 C4 1.66 4 2.32 4 3 C6.31 3.33 8.62 3.66 11 4 C11 4.33 11 4.66 11 5 C6.28596212 4.52060632 2.33420699 4.03165952 -2 2 C-1.34 1.34 -0.68 0.68 0 0 Z " fill="#141414" transform="translate(324,448)"/>
<path d="M0 0 C0.66 0.66 1.32 1.32 2 2 C-1.465 4.97 -1.465 4.97 -5 8 C-5 5 -5 5 -2.5 2.3125 C-1.675 1.549375 -0.85 0.78625 0 0 Z " fill="#292929" transform="translate(423,432)"/>
<path d="M0 0 C3.73487777 0.4979837 5.81237635 0.87491756 9 3 C9 3.66 9 4.32 9 5 C2.25 3.375 2.25 3.375 0 0 Z " fill="#111111" transform="translate(245,415)"/>
<path d="M0 0 C0.33 0 0.66 0 1 0 C1.02712066 1.43739513 1.04645067 2.87493863 1.0625 4.3125 C1.07410156 5.11300781 1.08570313 5.91351563 1.09765625 6.73828125 C1 9 1 9 0 12 C-0.99 12 -1.98 12 -3 12 C-2.67 10.35 -2.34 8.7 -2 7 C-1.67 7 -1.34 7 -1 7 C-0.67 4.69 -0.34 2.38 0 0 Z " fill="#1F1F1F" transform="translate(429,404)"/>
<path d="M0 0 C2.97 1.65 5.94 3.3 9 5 C8.34 5.66 7.68 6.32 7 7 C4.36 5.35 1.72 3.7 -1 2 C-0.67 1.34 -0.34 0.68 0 0 Z " fill="#131313" transform="translate(227,402)"/>
<path d="M0 0 C0.33 0.66 0.66 1.32 1 2 C-3.79300133 3.39151652 -8.15135782 2.68662689 -13 2 C-13 1.67 -13 1.34 -13 1 C-8.62426048 0.40667939 -4.42471556 -0.13827236 0 0 Z " fill="#181818" transform="translate(499,353)"/>
<path d="M0 0 C2.93200474 2.85276137 5.64315404 5.65079784 8 9 C7.01 9 6.02 9 5 9 C0 3.76744186 0 3.76744186 0 0 Z " fill="#181818" transform="translate(176,309)"/>
<path d="M0 0 C2.64752004 2.57784846 4.94432065 4.91648098 7 8 C6.01 8 5.02 8 4 8 C0 3.77142857 0 3.77142857 0 0 Z " fill="#1E1E1E" transform="translate(134,301)"/>
<path d="M0 0 C5.57142857 5.14285714 5.57142857 5.14285714 6 9 C2.75700849 6.61042731 0.49097658 4.7952131 -1 1 C-0.67 0.67 -0.34 0.34 0 0 Z " fill="#232323" transform="translate(171,294)"/>
<path d="M0 0 C4 1 4 1 5.3125 2.8125 C6 5 6 5 5 9 C3.35 6.03 1.7 3.06 0 0 Z " fill="#141414" transform="translate(146,270)"/>
<path d="M0 0 C2.93200474 2.85276137 5.64315404 5.65079784 8 9 C7.01 9 6.02 9 5 9 C0 3.76744186 0 3.76744186 0 0 Z " fill="#1A1A1A" transform="translate(323,258)"/>
<path d="M0 0 C2.9719385 1.12451727 5.33440687 2.22293791 8 4 C7.67 4.99 7.34 5.98 7 7 C5.82780457 6.21654285 4.66236332 5.42297164 3.5 4.625 C2.8503125 4.18414062 2.200625 3.74328125 1.53125 3.2890625 C1.0259375 2.86367187 0.520625 2.43828125 0 2 C0 1.34 0 0.68 0 0 Z " fill="#161616" transform="translate(290,227)"/>
<path d="M0 0 C0 0.66 0 1.32 0 2 C-2.70879335 3.35439668 -5.00933268 3.06501451 -8 3 C-5.53387212 -0.1151089 -3.89156016 -0.31553191 0 0 Z " fill="#F8F8F8" transform="translate(402,450)"/>
<path d="M0 0 C2.97 0.99 5.94 1.98 9 3 C8.01 3.66 7.02 4.32 6 5 C2.3125 3.625 2.3125 3.625 -1 2 C-0.67 1.34 -0.34 0.68 0 0 Z " fill="#191919" transform="translate(295,431)"/>
<path d="M0 0 C3.82097239 0.53069061 6.06171403 1.49701566 9 4 C6 5 6 5 2.8125 3.5625 C1.884375 3.046875 0.95625 2.53125 0 2 C0 1.34 0 0.68 0 0 Z " fill="#171717" transform="translate(283,426)"/>
<path d="M0 0 C3.96 1.98 3.96 1.98 8 4 C7.67 4.66 7.34 5.32 7 6 C3 6 3 6 1.25 4.6875 C0 3 0 3 0 0 Z " fill="#131313" transform="translate(260,408)"/>
<path d="M0 0 C4.42857143 5.14285714 4.42857143 5.14285714 5 9 C2.5 6.75 2.5 6.75 0 4 C0 2.68 0 1.36 0 0 Z " fill="#1D1D1D" transform="translate(442,361)"/>
<path d="M0 0 C2.31 0.33 4.62 0.66 7 1 C7 1.99 7 2.98 7 4 C4.36 3.34 1.72 2.68 -1 2 C-0.67 1.34 -0.34 0.68 0 0 Z " fill="#242424" transform="translate(477,352)"/>
<path d="M0 0 C2.64752004 2.57784846 4.94432065 4.91648098 7 8 C6.01 8 5.02 8 4 8 C0 3.77142857 0 3.77142857 0 0 Z " fill="#202020" transform="translate(360,299)"/>
<path d="M0 0 C2.1640625 0.0234375 2.1640625 0.0234375 4.625 0.375 C5.85089844 0.54128906 5.85089844 0.54128906 7.1015625 0.7109375 C7.72804687 0.80632812 8.35453125 0.90171875 9 1 C4.8204355 3.78637633 2.85331323 2.79562512 -2 2 C-1.34 1.34 -0.68 0.68 0 0 Z " fill="#1C1C1C" transform="translate(174,178)"/>
<path d="M0 0 C3.3 0.33 6.6 0.66 10 1 C10 1.33 10 1.66 10 2 C5.545 2.495 5.545 2.495 1 3 C0.67 2.01 0.34 1.02 0 0 Z " fill="#BCBCBC" transform="translate(129,171)"/>
<path d="M0 0 C0.33 0.99 0.66 1.98 1 3 C-1.31 4.32 -3.62 5.64 -6 7 C-6.33 6.34 -6.66 5.68 -7 5 C-4.69 3.35 -2.38 1.7 0 0 Z " fill="#131313" transform="translate(420,442)"/>
<path d="M0 0 C-2.38573379 1.89213369 -4.07175348 3.02391783 -7 4 C-7.66 3.34 -8.32 2.68 -9 2 C-3.375 -1.125 -3.375 -1.125 0 0 Z " fill="#202020" transform="translate(413,443)"/>
<path d="M0 0 C5.75 0.75 5.75 0.75 8 3 C5.21176345 4.0326802 4.1322726 4.04509293 1.25 3.0625 C0.5075 2.711875 -0.235 2.36125 -1 2 C-0.67 1.34 -0.34 0.68 0 0 Z " fill="#212121" transform="translate(326,415)"/>
<path d="M0 0 C3.87132028 0.57352893 6.08172796 2.48704352 9 5 C8.01 5.495 8.01 5.495 7 6 C5.83054208 5.19152271 4.66449539 4.37810888 3.5 3.5625 C2.8503125 3.11003906 2.200625 2.65757812 1.53125 2.19140625 C1.0259375 1.79824219 0.520625 1.40507812 0 1 C0 0.67 0 0.34 0 0 Z " fill="#181818" transform="translate(249,368)"/>
<path d="M0 0 C0.66 0.33 1.32 0.66 2 1 C1.67 2.98 1.34 4.96 1 7 C0.01 7 -0.98 7 -2 7 C-1.34 4.69 -0.68 2.38 0 0 Z " fill="#2A2A2A" transform="translate(265,361)"/>
<path d="M0 0 C4.24822374 0.47202486 6.19989709 2.96655518 9 6 C4.58763974 6 3.21615077 3.9302707 0 1 C0 0.67 0 0.34 0 0 Z " fill="#1F1F1F" transform="translate(176,349)"/>
<path d="M0 0 C0.99 0 1.98 0 3 0 C4.75 1.8125 4.75 1.8125 6 4 C5.67 4.99 5.34 5.98 5 7 C3.29115995 5.37660195 1.62553283 3.70680947 0 2 C0 1.34 0 0.68 0 0 Z " fill="#060606" transform="translate(183,318)"/>
<path d="M0 0 C1.2077558 3.62326739 0.54311128 4.64146369 -1 8 C-1.66 8 -2.32 8 -3 8 C-2.74438677 5.6568787 -2.40729228 3.32156597 -2 1 C-1.34 0.67 -0.68 0.34 0 0 Z " fill="#151515" transform="translate(284,312)"/>
<path d="M0 0 C0.33 0 0.66 0 1 0 C1 1.65 1 3.3 1 5 C1.66 5 2.32 5 3 5 C3.66 6.65 4.32 8.3 5 10 C4.01 10 3.02 10 2 10 C-0.09350689 6.5980513 -0.17942163 3.94727588 0 0 Z " fill="#222222" transform="translate(471,294)"/>
<path d="M0 0 C3.68754757 0.49831724 5.60490662 1.10067643 8 4 C7.34 5.32 6.68 6.64 6 8 C5.7525 7.236875 5.505 6.47375 5.25 5.6875 C3.89004442 2.7635955 2.68414174 1.69995644 0 0 Z " fill="#151515" transform="translate(496,288)"/>
<path d="M0 0 C0.66 0.99 1.32 1.98 2 3 C1.125 6.1875 1.125 6.1875 0 9 C-0.66 8.67 -1.32 8.34 -2 8 C-1.125 2.25 -1.125 2.25 0 0 Z " fill="#151515" transform="translate(201,280)"/>
<path d="M0 0 C0.66 0.33 1.32 0.66 2 1 C1.34 3.64 0.68 6.28 0 9 C-0.66 9 -1.32 9 -2 9 C-1.34 6.03 -0.68 3.06 0 0 Z " fill="#0D0D0D" transform="translate(204,270)"/>
<path d="M0 0 C1.77706209 2.66559313 2.87548273 5.0280615 4 8 C3.01 8 2.02 8 1 8 C0.26919734 6.02253397 -0.39421747 4.01927511 -1 2 C-0.67 1.34 -0.34 0.68 0 0 Z " fill="#1E1E1E" transform="translate(148,257)"/>
<path d="M0 0 C0.66 0.33 1.32 0.66 2 1 C2.73075648 3.3140622 3.40138258 5.64828869 4 8 C3.01 8.495 3.01 8.495 2 9 C1.01 6.36 0.02 3.72 -1 1 C-0.67 0.67 -0.34 0.34 0 0 Z " fill="#161616" transform="translate(103,258)"/>
<path d="M0 0 C0.66 0 1.32 0 2 0 C3.25 6.625 3.25 6.625 1 10 C0.67 6.7 0.34 3.4 0 0 Z " fill="#111111" transform="translate(86,232)"/>
<path d="M0 0 C5.75 1.75 5.75 1.75 8 4 C5 5 5 5 1.8125 3.5625 C0.884375 3.046875 -0.04375 2.53125 -1 2 C-0.67 1.34 -0.34 0.68 0 0 Z " fill="#1E1E1E" transform="translate(242,200)"/>
<path d="M0 0 C0.66 0 1.32 0 2 0 C1.67 0.66 1.34 1.32 1 2 C0.67 1.34 0.34 0.68 0 0 Z M0 1 C-0.33 1.99 -0.66 2.98 -1 4 C-2.9375 4.8125 -2.9375 4.8125 -5 5 C-5.66 4.34 -6.32 3.68 -7 3 C-2.25 1 -2.25 1 0 1 Z " fill="#181818" transform="translate(408,438)"/>
<path d="M0 0 C6.75 0.75 6.75 0.75 9 3 C6 4 6 4 2.8125 2.5625 C1.884375 2.046875 0.95625 1.53125 0 1 C0 0.67 0 0.34 0 0 Z " fill="#151515" transform="translate(273,430)"/>
<path d="M0 0 C3.96 1.98 3.96 1.98 8 4 C4 5 4 5 1.25 3.5625 C0.5075 3.046875 -0.235 2.53125 -1 2 C-0.67 1.34 -0.34 0.68 0 0 Z " fill="#151515" transform="translate(259,421)"/>
<path d="M0 0 C3.37503669 1.1858237 5.64722731 2.27573689 8 5 C7.01 5.495 7.01 5.495 6 6 C3.96166576 4.7260411 1.96147874 3.38938077 0 2 C0 1.34 0 0.68 0 0 Z " fill="#0F0F0F" transform="translate(217,396)"/>
<path d="M0 0 C2.475 0.99 2.475 0.99 5 2 C5 2.66 5 3.32 5 4 C5.99 4.33 6.98 4.66 8 5 C7.01 5.33 6.02 5.66 5 6 C2.3125 4.1875 2.3125 4.1875 0 2 C0 1.34 0 0.68 0 0 Z " fill="#161616" transform="translate(214,385)"/>
<path d="M0 0 C4.31392226 0.4793247 6.16569547 1.7457985 9 5 C4.98525763 5 3.18024863 3.33218233 0 1 C0 0.67 0 0.34 0 0 Z " fill="#1D1D1D" transform="translate(203,372)"/>
<path d="M0 0 C3.24271506 0.5590888 4.93057424 1.4132178 7 4 C7 4.66 7 5.32 7 6 C3.63279613 4.60667426 2.0140476 3.0210714 0 0 Z " fill="#0C0C0C" transform="translate(206,334)"/>
<path d="M0 0 C2.99324263 1.0975223 3.84610901 1.67682892 5.25 4.625 C5.4975 5.40875 5.745 6.1925 6 7 C2.58841744 5.86280581 1.88145399 4.95657056 0 2 C0 1.34 0 0.68 0 0 Z " fill="#1A1A1A" transform="translate(132,320)"/>
<path d="M0 0 C0.99 0 1.98 0 3 0 C3.66 2.31 4.32 4.62 5 7 C4.34 7 3.68 7 3 7 C0.70351351 4.4385343 0 3.52032428 0 0 Z " fill="#CBCBCB" transform="translate(179,301)"/>
<path d="M0 0 C0.66 0.99 1.32 1.98 2 3 C1.125 6.1875 1.125 6.1875 0 9 C-0.66 8.67 -1.32 8.34 -2 8 C-1.125 2.25 -1.125 2.25 0 0 Z " fill="#171717" transform="translate(259,276)"/>
<path d="M0 0 C0.99 0 1.98 0 3 0 C3 0.66 3 1.32 3 2 C3.66 2.33 4.32 2.66 5 3 C4.67 4.32 4.34 5.64 4 7 C2.10786631 4.61426621 0.97608217 2.92824652 0 0 Z " fill="#1E1E1E" transform="translate(106,268)"/>
</svg>
